<svg width="56" height="56" viewBox="0 0 56 56" fill="none" xmlns="http://www.w3.org/2000/svg">
<rect width="56" height="56" rx="28" fill="#A54834"/>
<path d="M29.5225 20.9925C29.8492 21.0392 30.0708 21.1383 30.1875 21.29C30.3158 21.4417 30.38 21.64 30.38 21.885C30.38 22.69 29.9483 23.0633 29.085 23.005L28.4725 22.9525C27.7842 22.8942 27.0958 22.8475 26.4075 22.8125C25.7308 22.7775 25.0192 22.76 24.2725 22.76H23.485C23.345 24.4867 23.1992 26.0617 23.0475 27.485L26.0575 27.4325C26.4892 27.4325 26.775 27.5083 26.915 27.66C27.0667 27.8117 27.1425 28.0158 27.1425 28.2725C27.1425 28.6692 27.0258 28.9842 26.7925 29.2175C26.5592 29.4392 26.2267 29.55 25.795 29.55H22.8025L22.6975 30.3025C22.4525 32.2275 21.9275 33.5983 21.1225 34.415C20.3292 35.2317 19.2325 35.64 17.8325 35.64C17.0392 35.64 16.31 35.4708 15.645 35.1325C14.98 34.7825 14.49 34.3625 14.175 33.8725C14.0467 33.6742 13.9825 33.435 13.9825 33.155C13.9825 32.875 14.0467 32.63 14.175 32.42C14.315 32.21 14.4842 32.105 14.6825 32.105C14.8225 32.105 14.9567 32.1517 15.085 32.245C15.225 32.3383 15.4 32.5192 15.61 32.7875C16.17 33.5225 16.8642 33.89 17.6925 33.89C18.3575 33.89 18.9117 33.6217 19.355 33.085C19.81 32.5367 20.1017 31.6792 20.23 30.5125L20.335 29.55H19.495C19.2267 29.55 18.9933 29.4742 18.795 29.3225C18.6083 29.1708 18.515 28.955 18.515 28.675C18.515 28.3133 18.6083 28.0392 18.795 27.8525C18.9817 27.6542 19.2558 27.555 19.6175 27.555C19.9442 27.555 20.265 27.5492 20.58 27.5375C20.72 26.2542 20.8717 24.6967 21.035 22.865C19.775 22.9817 18.8883 23.1858 18.375 23.4775C17.8617 23.7692 17.605 24.2008 17.605 24.7725C17.605 25.1692 17.7217 25.5483 17.955 25.91C18.025 26.015 18.06 26.12 18.06 26.225C18.06 26.435 17.9433 26.6217 17.71 26.785C17.4767 26.9367 17.2142 27.0125 16.9225 27.0125C16.6075 27.0125 16.3392 26.9192 16.1175 26.7325C15.9775 26.6158 15.8433 26.3767 15.715 26.015C15.5867 25.6533 15.5225 25.2508 15.5225 24.8075C15.5225 23.3608 16.2633 22.3108 17.745 21.6575C19.2383 21.0042 21.4142 20.6775 24.2725 20.6775C26.2558 20.6775 28.0058 20.7825 29.5225 20.9925ZM43.5035 31.5975C43.6552 31.5975 43.7718 31.6675 43.8535 31.8075C43.9468 31.9475 43.9935 32.14 43.9935 32.385C43.9935 32.84 43.8827 33.2017 43.661 33.47C42.506 34.8817 41.2752 35.5875 39.9685 35.5875C38.8368 35.5875 37.9327 35.15 37.256 34.275C36.5793 33.4 36.241 32.1458 36.241 30.5125C36.241 30.1158 36.2585 29.7192 36.2935 29.3225C35.5235 29.4625 34.6835 29.5675 33.7735 29.6375C33.1668 29.6842 32.7527 29.7133 32.531 29.725C32.2977 30.915 31.971 32.3733 31.551 34.1C31.306 35.115 30.8393 35.6225 30.151 35.6225C29.4043 35.6225 29.031 35.2842 29.031 34.6075C29.031 34.4558 29.0602 34.2458 29.1185 33.9775C29.5152 32.3792 29.8302 31.0258 30.0635 29.9175L29.2235 29.9525C28.8385 29.9525 28.5585 29.8883 28.3835 29.76C28.2085 29.62 28.121 29.3983 28.121 29.095C28.121 28.71 28.2318 28.43 28.4535 28.255C28.6752 28.0683 29.0427 27.9633 29.556 27.94L30.4835 27.905C30.7868 26.26 30.9385 25.0058 30.9385 24.1425C30.9385 23.5942 30.8568 23.2208 30.6935 23.0225C30.5302 22.8242 30.3143 22.725 30.046 22.725C29.2293 22.725 28.3077 23.4075 27.281 24.7725C27.1293 24.9708 26.9602 25.07 26.7735 25.07C26.6102 25.07 26.4702 24.9942 26.3535 24.8425C26.2368 24.6908 26.1785 24.4983 26.1785 24.265C26.1785 23.9033 26.3243 23.5183 26.616 23.11C27.1293 22.3983 27.7768 21.815 28.5585 21.36C29.3402 20.8933 30.1335 20.66 30.9385 20.66C31.6968 20.66 32.2802 20.9225 32.6885 21.4475C33.1085 21.9608 33.3185 22.7658 33.3185 23.8625C33.3185 24.8308 33.1785 26.1433 32.8985 27.8L34.6135 27.7125C35.3485 27.6775 35.9785 27.6192 36.5035 27.5375C36.7135 26.2542 37.0343 25.0525 37.466 23.9325C37.8977 22.8125 38.4343 21.9025 39.076 21.2025C39.7177 20.5025 40.4352 20.1525 41.2285 20.1525C41.8118 20.1525 42.2727 20.3858 42.611 20.8525C42.9493 21.3075 43.1185 21.9083 43.1185 22.655C43.1185 25.5483 41.6427 27.555 38.691 28.675C38.656 29.1417 38.6385 29.6258 38.6385 30.1275C38.6385 31.3525 38.7902 32.2217 39.0935 32.735C39.3968 33.2483 39.8227 33.505 40.371 33.505C40.8493 33.505 41.2868 33.3825 41.6835 33.1375C42.0802 32.8808 42.5293 32.4492 43.031 31.8425C43.171 31.6792 43.3285 31.5975 43.5035 31.5975ZM41.141 21.675C40.8843 21.675 40.6102 21.9083 40.3185 22.375C40.0385 22.8417 39.7702 23.4775 39.5135 24.2825C39.2568 25.0875 39.0527 25.9683 38.901 26.925C39.8343 26.54 40.5227 25.9917 40.966 25.28C41.4093 24.5683 41.631 23.6525 41.631 22.5325C41.631 22.2642 41.5843 22.0542 41.491 21.9025C41.3977 21.7508 41.281 21.675 41.141 21.675Z" fill="#FFF8F1"/>
</svg>
